<svg width="256" height="256" viewBox="0 0 256 256" xmlns="http://www.w3.org/2000/svg">
  <defs>
    <linearGradient id="bgGradient" x1="0%" y1="0%" x2="100%" y2="100%">
      <stop offset="0%" style="stop-color:#6366f1"/>
      <stop offset="100%" style="stop-color:#8b5cf6"/>
    </linearGradient>
    <linearGradient id="cardGradient" x1="0%" y1="0%" x2="100%" y2="100%">
      <stop offset="0%" style="stop-color:#ffffff"/>
      <stop offset="100%" style="stop-color:#f0f0f0"/>
    </linearGradient>
  </defs>
  
  <!-- Background circle -->
  <circle cx="128" cy="128" r="120" fill="url(#bgGradient)" stroke="#ffffff" stroke-width="8"/>
  
  <!-- Bingo card background -->
  <rect x="68" y="68" width="120" height="120" fill="url(#cardGradient)" rx="8" stroke="#333" stroke-width="2"/>
  
  <!-- Bingo grid lines -->
  <!-- Vertical lines -->
  <line x1="92" y1="68" x2="92" y2="188" stroke="#333" stroke-width="1"/>
  <line x1="116" y1="68" x2="116" y2="188" stroke="#333" stroke-width="1"/>
  <line x1="140" y1="68" x2="140" y2="188" stroke="#333" stroke-width="1"/>
  <line x1="164" y1="68" x2="164" y2="188" stroke="#333" stroke-width="1"/>
  
  <!-- Horizontal lines -->
  <line x1="68" y1="92" x2="188" y2="92" stroke="#333" stroke-width="1"/>
  <line x1="68" y1="116" x2="188" y2="116" stroke="#333" stroke-width="1"/>
  <line x1="68" y1="140" x2="188" y2="140" stroke="#333" stroke-width="1"/>
  <line x1="68" y1="164" x2="188" y2="164" stroke="#333" stroke-width="1"/>
  
  <!-- Center FREE space -->
  <rect x="116" y="116" width="24" height="24" fill="#22c55e" rx="2"/>
  <text x="128" y="132" font-family="Arial, sans-serif" font-size="8" font-weight="bold" text-anchor="middle" fill="#ffffff">FREE</text>
  
  <!-- Some marked spaces -->
  <circle cx="80" cy="80" r="8" fill="#fbbf24"/>
  <text x="80" y="84" font-family="Arial, sans-serif" font-size="10" font-weight="bold" text-anchor="middle" fill="#000">✓</text>
  
  <circle cx="152" cy="80" r="8" fill="#fbbf24"/>
  <text x="152" y="84" font-family="Arial, sans-serif" font-size="10" font-weight="bold" text-anchor="middle" fill="#000">✓</text>
  
  <circle cx="176" cy="152" r="8" fill="#22c55e"/>
  <text x="176" y="156" font-family="Arial, sans-serif" font-size="10" font-weight="bold" text-anchor="middle" fill="#fff">✓</text>
  
  <!-- Title text -->
  <text x="128" y="32" font-family="Arial, sans-serif" font-size="20" font-weight="bold" text-anchor="middle" fill="#ffffff">BINGO</text>
  
  <!-- Discord icon suggestion -->
  <circle cx="40" cy="216" r="12" fill="#5865f2"/>
  <text x="40" y="220" font-family="Arial, sans-serif" font-size="8" font-weight="bold" text-anchor="middle" fill="#ffffff">D</text>
  
  <!-- OBS icon suggestion -->
  <circle cx="216" cy="216" r="12" fill="#ff4444"/>
  <text x="216" y="220" font-family="Arial, sans-serif" font-size="8" font-weight="bold" text-anchor="middle" fill="#ffffff">O</text>
</svg>
